<svg version="1.1" xmlns="http://www.w3.org/2000/svg" xmlns:xlink="http://www.w3.org/1999/xlink" viewBox="0 0 330.001 330" style="enable-background:new 0 0 330.001 330;" xml:space="preserve"
	>
	<path d="M327.653,85.616L244.385,2.348c-3.129-3.129-8.203-3.129-11.332,0l-47.7,47.702l94.598,94.599l47.702-47.701
		C330.783,93.817,330.783,88.745,327.653,85.616z"/>
	<path d="M101.184,237.438c-3.555,3.554-9.316,3.554-12.871,0c-3.554-3.556-3.554-9.316,0-12.871l119.689-119.69l-38.738-38.738
		L23.842,211.563c-4.125,4.121-7.15,9.344-8.094,14.69l-15.446,87.52c-1.885,10.681,5.245,17.81,15.926,15.926l87.519-15.446
		c5.342-0.943,10.561-3.962,14.678-8.081l145.438-145.436l-42.989-42.99L101.184,237.438z M61.942,291.667l-23.609-23.608
		l4.477-25.368l44.5,44.5L61.942,291.667z"/>
</svg>
